<?xml version="1.0" encoding="UTF-8" standalone="no"?>
<svg
   xmlns:dc="http://purl.org/dc/elements/1.1/"
   xmlns:cc="http://creativecommons.org/ns#"
   xmlns:rdf="http://www.w3.org/1999/02/22-rdf-syntax-ns#"
   xmlns:svg="http://www.w3.org/2000/svg"
   xmlns="http://www.w3.org/2000/svg"
   xmlns:sodipodi="http://sodipodi.sourceforge.net/DTD/sodipodi-0.dtd"
   xmlns:inkscape="http://www.inkscape.org/namespaces/inkscape"
   id="svg3706"
   version="1.1"
   viewBox="0 0 22.577777 22.577777"
   height="80"
   width="80"
   inkscape:version="0.91 r13725"
   sodipodi:docname="logo-pj.svg">
  <sodipodi:namedview
     pagecolor="#ffffff"
     bordercolor="#666666"
     borderopacity="1"
     objecttolerance="10"
     gridtolerance="10"
     guidetolerance="10"
     inkscape:pageopacity="0"
     inkscape:pageshadow="2"
     inkscape:window-width="1280"
     inkscape:window-height="695"
     id="namedview3360"
     showgrid="false"
     inkscape:zoom="1"
     inkscape:cx="11.507874"
     inkscape:cy="93.846418"
     inkscape:window-x="0"
     inkscape:window-y="1"
     inkscape:window-maximized="1"
     inkscape:current-layer="svg3706"
     units="px" />
  <defs
     id="defs3700" />
  <metadata
     id="metadata3703">
    <rdf:RDF>
      <cc:Work
         rdf:about="">
        <dc:format>image/svg+xml</dc:format>
        <dc:type
           rdf:resource="http://purl.org/dc/dcmitype/StillImage" />
        <dc:title></dc:title>
      </cc:Work>
    </rdf:RDF>
  </metadata>
  <path
     inkscape:connector-curvature="0"
     d="m 11.846064,4.2938194 c 0.410229,0.85406 1.009673,2.969015 1.251196,4.6097 0.385705,2.6181896 -0.311245,3.7501186 -1.23994,5.6393086 -0.267362,-0.38837 -1.014347,-1.71357 -1.340108,-3.227189 C 9.877773,8.3391994 10.935507,7.0200194 11.846064,4.2938194 Z M 7.249568,12.933773 5.771961,8.7600494 c 0.744252,0.47764 3.977134,3.5463586 4.311322,4.4471786 C 9.255812,12.909083 8.389729,12.824288 7.249568,12.933773 Z M 9.793271,11.463914 C 9.415466,10.794929 6.76501,7.6142294 3.908088,7.2172144 l 0.236453,0.289505 c 1.459142,1.586535 1.944457,3.5393946 2.730647,5.5003336 -1.478431,0.24327 -3.173006,1.24902 -3.173006,3.00877 0,0.593089 0.443641,1.162249 1.063495,1.162249 l 0.193429,0 c 0.233852,0 0.754292,-0.26574 0.754292,-0.521335 -1.44459,0.30368 -1.643977,-0.703949 -1.130846,-1.752604 0.574854,-1.17347 1.823286,-1.426715 2.418648,-1.54262 0.423988,1.86327 2.235521,3.165824 4.03033,2.686575 -0.989692,-0.273985 -2.97849,-0.4627 -3.683931,-2.76065 1.907029,0 4.235314,0.96781 4.367251,2.554975 0.420204,-0.57002 1.023466,-2.026165 2.200301,-2.287935 0.06831,0.18843 0.174104,1.060045 0.321348,1.96781 0.132037,0.814224 0.378496,1.938199 -0.0741,2.695739 -0.168346,0.281855 -0.242247,0.57792 -0.833954,0.8706 -1.109451,0.54885 -1.515006,0.60293 -1.335436,0.6 0.10767,-5e-4 0.38959,-0.01255 0.98008,-0.16261 2.661322,-0.695845 1.774929,-3.553314 1.580808,-6.156929 1.742373,0.0112 3.555749,0.753915 4.346153,1.667705 0.71976,0.832185 0.582884,1.857989 -1.052666,1.600109 1.357193,1.960325 3.457289,-1.146584 1.001081,-2.766334 -1.470333,-0.969535 -2.631135,-1.049445 -4.342464,-1.052565 -0.152775,-2.564674 1.25801,-4.5664786 4.141498,-5.9305436 -0.291558,0.62489 -0.434392,1.79083 -0.600465,2.421735 -0.393047,1.4923596 -1.223214,2.6594146 -2.140552,3.1398336 1.925069,0.19086 2.370224,-1.708769 2.756026,-3.6017036 0.221016,-1.084305 0.547995,-2.098825 0.804593,-2.889085 -1.907686,0.937975 -4.359942,1.998735 -5.520318,4.4983296 0.105903,-2.5922896 -1.417005,-5.3567546 -2.197007,-7.7923796 -0.02514,0.19853 -0.08966,0.35344 -0.165744,0.5394 -1.299915,3.16865 -2.833287,4.3506 -1.790761,8.2603246 z m 4.01147,1.527374 c -0.172261,0.0648 -0.752449,0.453345 -0.838794,0.619575 0.219961,-0.283085 0.646815,-1.480244 0.744747,-1.946754 0.02359,-0.11297 0.09405,1.140089 0.09405,1.327179 z"
     style="fill:#8a3a3a;fill-opacity:1;fill-rule:evenodd;stroke-width:0.65836799"
     id="path3688" />
</svg>
